<svg xmlns="http://www.w3.org/2000/svg" viewBox="0 0 86.92 127.04"><defs><style>.cls-1,.cls-2{fill:#0578b7;}.cls-2{font-size:12.98px;font-family:Gotham-Black, Gotham Black;font-weight:800;}.cls-3{letter-spacing:-0.01em;}</style></defs><g id="Layer_2" data-name="Layer 2"><g id="Layer_1-2" data-name="Layer 1"><rect class="cls-1" x="28.84" width="0.85" height="83.13"/><rect class="cls-1" x="35.71" width="0.85" height="83.13"/><rect class="cls-1" x="42.58" width="0.85" height="83.13"/><rect class="cls-1" x="49.46" width="0.85" height="83.13"/><rect class="cls-1" x="65.45" width="0.85" height="83.13"/><rect class="cls-1" x="72.32" width="0.85" height="83.13"/><rect class="cls-1" x="79.19" width="0.85" height="83.13"/><rect class="cls-1" x="86.07" width="0.85" height="83.13"/><rect class="cls-1" x="57.45" y="37.33" width="0.85" height="22.47" transform="translate(-17.34 55.66) rotate(-45.39)"/><rect class="cls-1" x="57.48" y="50.59" width="0.85" height="15.23" transform="translate(-24.19 57.99) rotate(-45)"/><rect class="cls-1" x="57.46" y="60.26" width="0.85" height="15.28" transform="translate(-31.06 60.82) rotate(-45)"/><rect class="cls-1" x="57.54" y="70" width="0.85" height="15.38" transform="translate(-37.96 63.74) rotate(-45)"/><rect class="cls-1" width="0.85" height="108.85"/><rect class="cls-1" x="6.87" width="0.85" height="108.85"/><rect class="cls-1" x="13.74" width="0.85" height="108.85"/><rect class="cls-1" x="23.18" y="87.81" width="63.32" height="0.85"/><rect class="cls-1" x="23.18" y="94.68" width="63.32" height="0.85"/><rect class="cls-1" x="23.18" y="101.55" width="63.32" height="0.85"/><polygon class="cls-1" points="86.49 109.28 20.62 109.28 20.62 0 21.47 0 21.47 108.42 86.49 108.42 86.49 109.28"/><text class="cls-2" transform="translate(0.14 124.8)"><tspan class="cls-3">L</tspan><tspan x="7.86" y="0">ogicNimbus</tspan></text></g></g></svg>