<?xml version="1.0" encoding="UTF-8"?>
<svg id="Layer_2" data-name="Layer 2" xmlns="http://www.w3.org/2000/svg" viewBox="0 0 312.83 42.72">
  <defs>
    <style>
      .cls-1 {
        font-family: Gotham-Black, 'Gotham Black';
        font-size: 41.76px;
        font-weight: 800;
      }

      .cls-1, .cls-2 {
        fill: #0578b7;
      }

      .cls-2 {
        stroke-width: 0px;
      }

      .cls-3 {
        letter-spacing: 0em;
      }

      .cls-4 {
        letter-spacing: 0em;
      }
    </style>
  </defs>
  <g id="Layer_1-2" data-name="Layer 1">
    <rect class="cls-2" x="9.74" y="5" width=".29" height="28.07"/>
    <rect class="cls-2" x="12.06" y="5" width=".29" height="28.07"/>
    <rect class="cls-2" x="14.38" y="5" width=".29" height="28.07"/>
    <rect class="cls-2" x="16.7" y="5" width=".29" height="28.07"/>
    <rect class="cls-2" x="22.1" y="5" width=".29" height="28.07"/>
    <rect class="cls-2" x="24.42" y="5" width=".29" height="28.07"/>
    <rect class="cls-2" x="26.74" y="5" width=".29" height="28.07"/>
    <rect class="cls-2" x="29.06" y="5" width=".29" height="28.07"/>
    <rect class="cls-2" x="19.4" y="17.61" width=".29" height="7.59" transform="translate(-9.42 20.29) rotate(-45.39)"/>
    <rect class="cls-2" x="19.41" y="22.09" width=".29" height="5.14" transform="translate(-11.71 21.05) rotate(-45)"/>
    <rect class="cls-2" x="19.4" y="25.35" width=".29" height="5.16" transform="translate(-14.03 22) rotate(-45)"/>
    <rect class="cls-2" x="19.43" y="28.64" width=".29" height="5.19" transform="translate(-16.36 22.99) rotate(-45)"/>
    <rect class="cls-2" y="5" width=".29" height="36.76"/>
    <rect class="cls-2" x="2.32" y="5" width=".29" height="36.76"/>
    <rect class="cls-2" x="4.64" y="5" width=".29" height="36.76"/>
    <rect class="cls-2" x="7.83" y="34.66" width="21.38" height=".29"/>
    <rect class="cls-2" x="7.83" y="36.98" width="21.38" height=".29"/>
    <rect class="cls-2" x="7.83" y="39.3" width="21.38" height=".29"/>
    <polygon class="cls-2" points="29.21 41.91 6.96 41.91 6.96 5 7.25 5 7.25 41.62 29.21 41.62 29.21 41.91"/>
    <text class="cls-1" transform="translate(33.59 35.49)"><tspan class="cls-3" x="0" y="0">L</tspan><tspan class="cls-4" x="25.31" y="0">ogicNimbus</tspan></text>
  </g>
</svg>